<svg xmlns="http://www.w3.org/2000/svg" xmlns:xlink="http://www.w3.org/1999/xlink" version="1.1" x="0px" y="0px" viewBox="0 0 100 125" style="enable-background:new 0 0 100 100;" xml:space="preserve"><g><g><rect x="18.2" y="69.9" width="4" height="19.7"/><rect x="72.6" y="69.9" width="4" height="19.7"/></g><rect x="10.5" y="66" width="70.6" height="2.8"/></g><path d="M25.5,48c4.6,0,8.3,3.7,8.3,8.3s-3.7,8.3-8.3,8.3s-8.3-3.7-8.3-8.3S21,48,25.5,48z"/><path d="M45.7,54L45.7,54c0.4,5.5,0.7,6.4-0.5,7.7c-1.1,1.2-2.3,1-3.9,1c-1.8,0-3.3-1.5-3.2-3.4l0.4-6.3l0,0l0.6-8.5  c2,0.3,4.1,0.3,6,0l0.6,8.6h0C45.6,53.3,45.6,53.8,45.7,54z"/><path d="M86.3,89.5h-0.8c-1,0-1.9-0.8-1.9-1.8l-0.9-23.2H36.2c-0.8,0-1.5-0.7-1.5-1.5v-8c0-0.9,0.8-1.6,1.6-1.5l0.7,0.1l-0.4,5.6  c-0.1,2.6,1.9,4.8,4.5,4.8c1.6,0,3.3,0.2,4.9-1.4c1.7-1.8,1.2-3.3,0.9-7.9l38.9,4c2.1,0.2,3.6,2,3.5,4.1c0,0.7-0.1,1.6-0.2,3h0  l-1.2,21.9C88.1,88.8,87.3,89.5,86.3,89.5z"/><path d="M42,10.5c-9.1,0-16.5,7.4-16.5,16.5c0,10.4,9.6,18.4,20,16.2c7.6-1.6,13.1-8.4,13.1-16.2C58.6,17.9,51.1,10.5,42,10.5z   M44.6,29.5c-1.4,1.4-3.7,1.4-5.1,0c-1.4-1.4-1.4-3.7,0-5.1c1.4-1.4,3.7-1.4,5.1,0C46,25.8,46,28.1,44.6,29.5z"/><text x="0" y="115" fill="#000000" font-size="5px" font-weight="bold" font-family="'Helvetica Neue', Helvetica, Arial-Unicode, Arial, Sans-serif">Created by Hoeda</text><text x="0" y="120" fill="#000000" font-size="5px" font-weight="bold" font-family="'Helvetica Neue', Helvetica, Arial-Unicode, Arial, Sans-serif">from the Noun Project</text></svg>